solid Cube_STL_Complex
   facet normal 1.000000e+00 0.000000e+00 0.000000e+00
      outer loop
         vertex 1.250000e+01 -1.250000e+01 -1.250000e+01
         vertex 1.250000e+01 0.000000e+00 -1.250000e+01
         vertex 1.250000e+01 -1.250000e+01 5.204170e-15
      endloop
   endfacet
   facet normal 1.000000e+00 -0.000000e+00 0.000000e+00
      outer loop
         vertex 1.250000e+01 -1.250000e+01 5.204170e-15
         vertex 1.250000e+01 0.000000e+00 -1.250000e+01
         vertex 1.250000e+01 0.000000e+00 5.204170e-15
      endloop
   endfacet
   facet normal 1.000000e+00 0.000000e+00 0.000000e+00
      outer loop
         vertex 1.250000e+01 -1.250000e+01 5.204170e-15
         vertex 1.250000e+01 0.000000e+00 5.204170e-15
         vertex 1.250000e+01 -1.250000e+01 1.250000e+01
      endloop
   endfacet
   facet normal 1.000000e+00 -0.000000e+00 0.000000e+00
      outer loop
         vertex 1.250000e+01 -1.250000e+01 1.250000e+01
         vertex 1.250000e+01 0.000000e+00 5.204170e-15
         vertex 1.250000e+01 0.000000e+00 1.250000e+01
      endloop
   endfacet
   facet normal 1.000000e+00 0.000000e+00 0.000000e+00
      outer loop
         vertex 1.250000e+01 0.000000e+00 -1.250000e+01
         vertex 1.250000e+01 1.250000e+01 -1.250000e+01
         vertex 1.250000e+01 0.000000e+00 5.204170e-15
      endloop
   endfacet
   facet normal 1.000000e+00 -0.000000e+00 0.000000e+00
      outer loop
         vertex 1.250000e+01 0.000000e+00 5.204170e-15
         vertex 1.250000e+01 1.250000e+01 -1.250000e+01
         vertex 1.250000e+01 1.250000e+01 5.204170e-15
      endloop
   endfacet
   facet normal 1.000000e+00 0.000000e+00 0.000000e+00
      outer loop
         vertex 1.250000e+01 0.000000e+00 5.204170e-15
         vertex 1.250000e+01 1.250000e+01 5.204170e-15
         vertex 1.250000e+01 0.000000e+00 1.250000e+01
      endloop
   endfacet
   facet normal 1.000000e+00 -0.000000e+00 0.000000e+00
      outer loop
         vertex 1.250000e+01 0.000000e+00 1.250000e+01
         vertex 1.250000e+01 1.250000e+01 5.204170e-15
         vertex 1.250000e+01 1.250000e+01 1.250000e+01
      endloop
   endfacet
   facet normal 0.000000e+00 0.000000e+00 -1.000000e+00
      outer loop
         vertex -1.250000e+01 -1.250000e+01 -1.250000e+01
         vertex -1.250000e+01 0.000000e+00 -1.250000e+01
         vertex -3.469447e-15 -1.250000e+01 -1.250000e+01
      endloop
   endfacet
   facet normal 0.000000e+00 0.000000e+00 -1.000000e+00
      outer loop
         vertex -3.469447e-15 -1.250000e+01 -1.250000e+01
         vertex -1.250000e+01 0.000000e+00 -1.250000e+01
         vertex -3.469447e-15 0.000000e+00 -1.250000e+01
      endloop
   endfacet
   facet normal 0.000000e+00 0.000000e+00 -1.000000e+00
      outer loop
         vertex -3.469447e-15 -1.250000e+01 -1.250000e+01
         vertex -3.469447e-15 0.000000e+00 -1.250000e+01
         vertex 1.250000e+01 -1.250000e+01 -1.250000e+01
      endloop
   endfacet
   facet normal 0.000000e+00 0.000000e+00 -1.000000e+00
      outer loop
         vertex 1.250000e+01 -1.250000e+01 -1.250000e+01
         vertex -3.469447e-15 0.000000e+00 -1.250000e+01
         vertex 1.250000e+01 0.000000e+00 -1.250000e+01
      endloop
   endfacet
   facet normal 0.000000e+00 0.000000e+00 -1.000000e+00
      outer loop
         vertex -1.250000e+01 0.000000e+00 -1.250000e+01
         vertex -1.250000e+01 1.250000e+01 -1.250000e+01
         vertex -3.469447e-15 0.000000e+00 -1.250000e+01
      endloop
   endfacet
   facet normal 0.000000e+00 0.000000e+00 -1.000000e+00
      outer loop
         vertex -3.469447e-15 0.000000e+00 -1.250000e+01
         vertex -1.250000e+01 1.250000e+01 -1.250000e+01
         vertex -3.469447e-15 1.250000e+01 -1.250000e+01
      endloop
   endfacet
   facet normal 0.000000e+00 0.000000e+00 -1.000000e+00
      outer loop
         vertex -3.469447e-15 0.000000e+00 -1.250000e+01
         vertex -3.469447e-15 1.250000e+01 -1.250000e+01
         vertex 1.250000e+01 0.000000e+00 -1.250000e+01
      endloop
   endfacet
   facet normal 0.000000e+00 0.000000e+00 -1.000000e+00
      outer loop
         vertex 1.250000e+01 0.000000e+00 -1.250000e+01
         vertex -3.469447e-15 1.250000e+01 -1.250000e+01
         vertex 1.250000e+01 1.250000e+01 -1.250000e+01
      endloop
   endfacet
   facet normal -1.000000e+00 0.000000e+00 0.000000e+00
      outer loop
         vertex -1.250000e+01 -1.250000e+01 1.250000e+01
         vertex -1.250000e+01 0.000000e+00 1.250000e+01
         vertex -1.250000e+01 -1.250000e+01 5.204170e-15
      endloop
   endfacet
   facet normal -1.000000e+00 0.000000e+00 0.000000e+00
      outer loop
         vertex -1.250000e+01 -1.250000e+01 5.204170e-15
         vertex -1.250000e+01 0.000000e+00 1.250000e+01
         vertex -1.250000e+01 0.000000e+00 5.204170e-15
      endloop
   endfacet
   facet normal -1.000000e+00 0.000000e+00 0.000000e+00
      outer loop
         vertex -1.250000e+01 -1.250000e+01 5.204170e-15
         vertex -1.250000e+01 0.000000e+00 5.204170e-15
         vertex -1.250000e+01 -1.250000e+01 -1.250000e+01
      endloop
   endfacet
   facet normal -1.000000e+00 0.000000e+00 0.000000e+00
      outer loop
         vertex -1.250000e+01 -1.250000e+01 -1.250000e+01
         vertex -1.250000e+01 0.000000e+00 5.204170e-15
         vertex -1.250000e+01 0.000000e+00 -1.250000e+01
      endloop
   endfacet
   facet normal -1.000000e+00 0.000000e+00 0.000000e+00
      outer loop
         vertex -1.250000e+01 0.000000e+00 1.250000e+01
         vertex -1.250000e+01 1.250000e+01 1.250000e+01
         vertex -1.250000e+01 0.000000e+00 5.204170e-15
      endloop
   endfacet
   facet normal -1.000000e+00 0.000000e+00 0.000000e+00
      outer loop
         vertex -1.250000e+01 0.000000e+00 5.204170e-15
         vertex -1.250000e+01 1.250000e+01 1.250000e+01
         vertex -1.250000e+01 1.250000e+01 5.204170e-15
      endloop
   endfacet
   facet normal -1.000000e+00 0.000000e+00 0.000000e+00
      outer loop
         vertex -1.250000e+01 0.000000e+00 5.204170e-15
         vertex -1.250000e+01 1.250000e+01 5.204170e-15
         vertex -1.250000e+01 0.000000e+00 -1.250000e+01
      endloop
   endfacet
   facet normal -1.000000e+00 0.000000e+00 0.000000e+00
      outer loop
         vertex -1.250000e+01 0.000000e+00 -1.250000e+01
         vertex -1.250000e+01 1.250000e+01 5.204170e-15
         vertex -1.250000e+01 1.250000e+01 -1.250000e+01
      endloop
   endfacet
   facet normal 0.000000e+00 -0.000000e+00 1.000000e+00
      outer loop
         vertex 1.250000e+01 -1.250000e+01 1.250000e+01
         vertex 1.250000e+01 0.000000e+00 1.250000e+01
         vertex 1.734723e-15 -1.250000e+01 1.250000e+01
      endloop
   endfacet
   facet normal 0.000000e+00 0.000000e+00 1.000000e+00
      outer loop
         vertex 1.734723e-15 -1.250000e+01 1.250000e+01
         vertex 1.250000e+01 0.000000e+00 1.250000e+01
         vertex 1.734723e-15 0.000000e+00 1.250000e+01
      endloop
   endfacet
   facet normal 0.000000e+00 -0.000000e+00 1.000000e+00
      outer loop
         vertex 1.734723e-15 -1.250000e+01 1.250000e+01
         vertex 1.734723e-15 0.000000e+00 1.250000e+01
         vertex -1.250000e+01 -1.250000e+01 1.250000e+01
      endloop
   endfacet
   facet normal 0.000000e+00 0.000000e+00 1.000000e+00
      outer loop
         vertex -1.250000e+01 -1.250000e+01 1.250000e+01
         vertex 1.734723e-15 0.000000e+00 1.250000e+01
         vertex -1.250000e+01 0.000000e+00 1.250000e+01
      endloop
   endfacet
   facet normal 0.000000e+00 -0.000000e+00 1.000000e+00
      outer loop
         vertex 1.250000e+01 0.000000e+00 1.250000e+01
         vertex 1.250000e+01 1.250000e+01 1.250000e+01
         vertex 1.734723e-15 0.000000e+00 1.250000e+01
      endloop
   endfacet
   facet normal 0.000000e+00 0.000000e+00 1.000000e+00
      outer loop
         vertex 1.734723e-15 0.000000e+00 1.250000e+01
         vertex 1.250000e+01 1.250000e+01 1.250000e+01
         vertex 1.734723e-15 1.250000e+01 1.250000e+01
      endloop
   endfacet
   facet normal 0.000000e+00 -0.000000e+00 1.000000e+00
      outer loop
         vertex 1.734723e-15 0.000000e+00 1.250000e+01
         vertex 1.734723e-15 1.250000e+01 1.250000e+01
         vertex -1.250000e+01 0.000000e+00 1.250000e+01
      endloop
   endfacet
   facet normal 0.000000e+00 0.000000e+00 1.000000e+00
      outer loop
         vertex -1.250000e+01 0.000000e+00 1.250000e+01
         vertex 1.734723e-15 1.250000e+01 1.250000e+01
         vertex -1.250000e+01 1.250000e+01 1.250000e+01
      endloop
   endfacet
   facet normal 0.000000e+00 1.000000e+00 0.000000e+00
      outer loop
         vertex 1.250000e+01 1.250000e+01 1.250000e+01
         vertex 1.250000e+01 1.250000e+01 5.204170e-15
         vertex 0.000000e+00 1.250000e+01 1.250000e+01
      endloop
   endfacet
   facet normal 0.000000e+00 1.000000e+00 0.000000e+00
      outer loop
         vertex 0.000000e+00 1.250000e+01 1.250000e+01
         vertex 1.250000e+01 1.250000e+01 5.204170e-15
         vertex 0.000000e+00 1.250000e+01 5.204170e-15
      endloop
   endfacet
   facet normal 0.000000e+00 1.000000e+00 0.000000e+00
      outer loop
         vertex 0.000000e+00 1.250000e+01 1.250000e+01
         vertex 0.000000e+00 1.250000e+01 5.204170e-15
         vertex -1.250000e+01 1.250000e+01 1.250000e+01
      endloop
   endfacet
   facet normal 0.000000e+00 1.000000e+00 0.000000e+00
      outer loop
         vertex -1.250000e+01 1.250000e+01 1.250000e+01
         vertex 0.000000e+00 1.250000e+01 5.204170e-15
         vertex -1.250000e+01 1.250000e+01 5.204170e-15
      endloop
   endfacet
   facet normal 0.000000e+00 1.000000e+00 0.000000e+00
      outer loop
         vertex 1.250000e+01 1.250000e+01 5.204170e-15
         vertex 1.250000e+01 1.250000e+01 -1.250000e+01
         vertex 0.000000e+00 1.250000e+01 5.204170e-15
      endloop
   endfacet
   facet normal 0.000000e+00 1.000000e+00 0.000000e+00
      outer loop
         vertex 0.000000e+00 1.250000e+01 5.204170e-15
         vertex 1.250000e+01 1.250000e+01 -1.250000e+01
         vertex 0.000000e+00 1.250000e+01 -1.250000e+01
      endloop
   endfacet
   facet normal 0.000000e+00 1.000000e+00 0.000000e+00
      outer loop
         vertex 0.000000e+00 1.250000e+01 5.204170e-15
         vertex 0.000000e+00 1.250000e+01 -1.250000e+01
         vertex -1.250000e+01 1.250000e+01 5.204170e-15
      endloop
   endfacet
   facet normal 0.000000e+00 1.000000e+00 0.000000e+00
      outer loop
         vertex -1.250000e+01 1.250000e+01 5.204170e-15
         vertex 0.000000e+00 1.250000e+01 -1.250000e+01
         vertex -1.250000e+01 1.250000e+01 -1.250000e+01
      endloop
   endfacet
   facet normal 0.000000e+00 -1.000000e+00 0.000000e+00
      outer loop
         vertex -1.250000e+01 -1.250000e+01 -1.250000e+01
         vertex 0.000000e+00 -1.250000e+01 -1.250000e+01
         vertex -1.250000e+01 -1.250000e+01 5.204170e-15
      endloop
   endfacet
   facet normal 0.000000e+00 -1.000000e+00 0.000000e+00
      outer loop
         vertex -1.250000e+01 -1.250000e+01 5.204170e-15
         vertex 0.000000e+00 -1.250000e+01 -1.250000e+01
         vertex 0.000000e+00 -1.250000e+01 5.204170e-15
      endloop
   endfacet
   facet normal 0.000000e+00 -1.000000e+00 0.000000e+00
      outer loop
         vertex -1.250000e+01 -1.250000e+01 5.204170e-15
         vertex 0.000000e+00 -1.250000e+01 5.204170e-15
         vertex -1.250000e+01 -1.250000e+01 1.250000e+01
      endloop
   endfacet
   facet normal 0.000000e+00 -1.000000e+00 0.000000e+00
      outer loop
         vertex -1.250000e+01 -1.250000e+01 1.250000e+01
         vertex 0.000000e+00 -1.250000e+01 5.204170e-15
         vertex 0.000000e+00 -1.250000e+01 1.250000e+01
      endloop
   endfacet
   facet normal 0.000000e+00 -1.000000e+00 0.000000e+00
      outer loop
         vertex 0.000000e+00 -1.250000e+01 -1.250000e+01
         vertex 1.250000e+01 -1.250000e+01 -1.250000e+01
         vertex 0.000000e+00 -1.250000e+01 5.204170e-15
      endloop
   endfacet
   facet normal 0.000000e+00 -1.000000e+00 0.000000e+00
      outer loop
         vertex 0.000000e+00 -1.250000e+01 5.204170e-15
         vertex 1.250000e+01 -1.250000e+01 -1.250000e+01
         vertex 1.250000e+01 -1.250000e+01 5.204170e-15
      endloop
   endfacet
   facet normal 0.000000e+00 -1.000000e+00 0.000000e+00
      outer loop
         vertex 0.000000e+00 -1.250000e+01 5.204170e-15
         vertex 1.250000e+01 -1.250000e+01 5.204170e-15
         vertex 0.000000e+00 -1.250000e+01 1.250000e+01
      endloop
   endfacet
   facet normal 0.000000e+00 -1.000000e+00 0.000000e+00
      outer loop
         vertex 0.000000e+00 -1.250000e+01 1.250000e+01
         vertex 1.250000e+01 -1.250000e+01 5.204170e-15
         vertex 1.250000e+01 -1.250000e+01 1.250000e+01
      endloop
   endfacet
endsolid Cube_STL_Complex