solid Pyramid_Complex
   facet normal 0.000000e+00 -1.000000e+00 0.000000e+00
      outer loop
         vertex -1.000000e+01 0.000000e+00 5.000000e+00
         vertex -1.000000e+01 0.000000e+00 0.000000e+00
         vertex -3.333333e+00 0.000000e+00 0.000000e+00
      endloop
   endfacet
   facet normal 0.000000e+00 -1.000000e+00 0.000000e+00
      outer loop
         vertex -1.000000e+01 0.000000e+00 5.030000e+00
         vertex -1.000000e+01 0.000000e+00 5.000000e+00
         vertex -3.333333e+00 0.000000e+00 5.000000e+00
      endloop
   endfacet
   facet normal -0.000000e+00 -1.000000e+00 0.000000e+00
      outer loop
         vertex -3.333333e+00 0.000000e+00 1.000000e+01
         vertex -1.000000e+01 0.000000e+00 1.000000e+01
         vertex -1.000000e+01 0.000000e+00 5.030000e+00
      endloop
   endfacet
   facet normal 0.000000e+00 -1.000000e+00 2.094234e-18
      outer loop
         vertex 1.000000e+01 -1.040834e-17 5.030000e+00
         vertex 1.000000e+01 0.000000e+00 1.000000e+01
         vertex 3.333333e+00 0.000000e+00 1.000000e+01
      endloop
   endfacet
   facet normal 0.000000e+00 -1.000000e+00 0.000000e+00
      outer loop
         vertex -1.000000e+01 0.000000e+00 5.030000e+00
         vertex -3.333333e+00 0.000000e+00 5.000000e+00
         vertex -3.333333e+00 0.000000e+00 1.000000e+01
      endloop
   endfacet
   facet normal 0.000000e+00 -1.000000e+00 0.000000e+00
      outer loop
         vertex -3.333333e+00 0.000000e+00 1.000000e+01
         vertex -3.333333e+00 0.000000e+00 5.000000e+00
         vertex 3.333333e+00 0.000000e+00 5.000000e+00
      endloop
   endfacet
   facet normal 0.000000e+00 -1.000000e+00 0.000000e+00
      outer loop
         vertex -3.333333e+00 0.000000e+00 1.000000e+01
         vertex 3.333333e+00 0.000000e+00 5.000000e+00
         vertex 3.333333e+00 0.000000e+00 1.000000e+01
      endloop
   endfacet
   facet normal 0.000000e+00 -1.000000e+00 0.000000e+00
      outer loop
         vertex 3.333333e+00 0.000000e+00 1.000000e+01
         vertex 3.333333e+00 0.000000e+00 5.000000e+00
         vertex 1.000000e+01 0.000000e+00 5.000000e+00
      endloop
   endfacet
   facet normal -2.602065e-16 -1.000000e+00 -3.469421e-16
      outer loop
         vertex 3.333333e+00 0.000000e+00 1.000000e+01
         vertex 1.000000e+01 0.000000e+00 5.000000e+00
         vertex 1.000000e+01 -1.040834e-17 5.030000e+00
      endloop
   endfacet
   facet normal 0.000000e+00 -1.000000e+00 0.000000e+00
      outer loop
         vertex -1.000000e+01 0.000000e+00 5.000000e+00
         vertex -3.333333e+00 0.000000e+00 0.000000e+00
         vertex -3.333333e+00 0.000000e+00 5.000000e+00
      endloop
   endfacet
   facet normal 0.000000e+00 -1.000000e+00 0.000000e+00
      outer loop
         vertex -3.333333e+00 0.000000e+00 5.000000e+00
         vertex -3.333333e+00 0.000000e+00 0.000000e+00
         vertex 3.333333e+00 0.000000e+00 0.000000e+00
      endloop
   endfacet
   facet normal 0.000000e+00 -1.000000e+00 0.000000e+00
      outer loop
         vertex -3.333333e+00 0.000000e+00 5.000000e+00
         vertex 3.333333e+00 0.000000e+00 0.000000e+00
         vertex 3.333333e+00 0.000000e+00 5.000000e+00
      endloop
   endfacet
   facet normal 0.000000e+00 -1.000000e+00 0.000000e+00
      outer loop
         vertex 3.333333e+00 0.000000e+00 5.000000e+00
         vertex 3.333333e+00 0.000000e+00 0.000000e+00
         vertex 1.000000e+01 0.000000e+00 0.000000e+00
      endloop
   endfacet
   facet normal 0.000000e+00 -1.000000e+00 0.000000e+00
      outer loop
         vertex 3.333333e+00 0.000000e+00 5.000000e+00
         vertex 1.000000e+01 0.000000e+00 0.000000e+00
         vertex 1.000000e+01 0.000000e+00 5.000000e+00
      endloop
   endfacet
   facet normal 0.000000e+00 0.000000e+00 -1.000000e+00
      outer loop
         vertex -1.000000e+01 7.545000e+00 0.000000e+00
         vertex -1.000000e+01 1.500000e+01 0.000000e+00
         vertex -3.333333e+00 1.500000e+01 0.000000e+00
      endloop
   endfacet
   facet normal 0.000000e+00 -0.000000e+00 -1.000000e+00
      outer loop
         vertex 1.000000e+01 7.545000e+00 0.000000e+00
         vertex 1.000000e+01 7.500000e+00 0.000000e+00
         vertex 3.333333e+00 7.500000e+00 0.000000e+00
      endloop
   endfacet
   facet normal 0.000000e+00 0.000000e+00 -1.000000e+00
      outer loop
         vertex -1.000000e+01 0.000000e+00 0.000000e+00
         vertex -1.000000e+01 7.500000e+00 0.000000e+00
         vertex -3.333333e+00 0.000000e+00 0.000000e+00
      endloop
   endfacet
   facet normal 0.000000e+00 0.000000e+00 -1.000000e+00
      outer loop
         vertex -3.333333e+00 0.000000e+00 0.000000e+00
         vertex -1.000000e+01 7.500000e+00 0.000000e+00
         vertex -3.333333e+00 7.500000e+00 0.000000e+00
      endloop
   endfacet
   facet normal 0.000000e+00 0.000000e+00 -1.000000e+00
      outer loop
         vertex -3.333333e+00 0.000000e+00 0.000000e+00
         vertex -3.333333e+00 7.500000e+00 0.000000e+00
         vertex 3.333333e+00 0.000000e+00 0.000000e+00
      endloop
   endfacet
   facet normal 0.000000e+00 0.000000e+00 -1.000000e+00
      outer loop
         vertex 3.333333e+00 0.000000e+00 0.000000e+00
         vertex -3.333333e+00 7.500000e+00 0.000000e+00
         vertex 3.333333e+00 7.500000e+00 0.000000e+00
      endloop
   endfacet
   facet normal 0.000000e+00 0.000000e+00 -1.000000e+00
      outer loop
         vertex 3.333333e+00 0.000000e+00 0.000000e+00
         vertex 3.333333e+00 7.500000e+00 0.000000e+00
         vertex 1.000000e+01 0.000000e+00 0.000000e+00
      endloop
   endfacet
   facet normal 0.000000e+00 0.000000e+00 -1.000000e+00
      outer loop
         vertex 1.000000e+01 0.000000e+00 0.000000e+00
         vertex 3.333333e+00 7.500000e+00 0.000000e+00
         vertex 1.000000e+01 7.500000e+00 0.000000e+00
      endloop
   endfacet
   facet normal 0.000000e+00 0.000000e+00 -1.000000e+00
      outer loop
         vertex -1.000000e+01 7.500000e+00 0.000000e+00
         vertex -1.000000e+01 7.545000e+00 0.000000e+00
         vertex -3.333333e+00 7.500000e+00 0.000000e+00
      endloop
   endfacet
   facet normal 0.000000e+00 0.000000e+00 -1.000000e+00
      outer loop
         vertex -3.333333e+00 7.500000e+00 0.000000e+00
         vertex -1.000000e+01 7.545000e+00 0.000000e+00
         vertex -3.333333e+00 1.500000e+01 0.000000e+00
      endloop
   endfacet
   facet normal 0.000000e+00 0.000000e+00 -1.000000e+00
      outer loop
         vertex -3.333333e+00 7.500000e+00 0.000000e+00
         vertex -3.333333e+00 1.500000e+01 0.000000e+00
         vertex 3.333333e+00 7.500000e+00 0.000000e+00
      endloop
   endfacet
   facet normal 0.000000e+00 0.000000e+00 -1.000000e+00
      outer loop
         vertex 3.333333e+00 7.500000e+00 0.000000e+00
         vertex -3.333333e+00 1.500000e+01 0.000000e+00
         vertex 3.333333e+00 1.500000e+01 0.000000e+00
      endloop
   endfacet
   facet normal 0.000000e+00 0.000000e+00 -1.000000e+00
      outer loop
         vertex 3.333333e+00 7.500000e+00 0.000000e+00
         vertex 3.333333e+00 1.500000e+01 0.000000e+00
         vertex 1.000000e+01 7.545000e+00 0.000000e+00
      endloop
   endfacet
   facet normal 0.000000e+00 0.000000e+00 -1.000000e+00
      outer loop
         vertex 1.000000e+01 7.545000e+00 0.000000e+00
         vertex 3.333333e+00 1.500000e+01 0.000000e+00
         vertex 1.000000e+01 1.500000e+01 0.000000e+00
      endloop
   endfacet
   facet normal 0.000000e+00 5.547002e-01 8.320503e-01
      outer loop
         vertex -1.000000e+01 5.000000e+00 6.666667e+00
         vertex -1.000000e+01 -1.734723e-15 1.000000e+01
         vertex -3.333333e+00 -1.734723e-15 1.000000e+01
      endloop
   endfacet
   facet normal -0.000000e+00 5.547002e-01 8.320503e-01
      outer loop
         vertex -1.000000e+01 1.000000e+01 3.333333e+00
         vertex -3.333333e+00 1.000000e+01 3.333333e+00
         vertex -1.000000e+01 1.500000e+01 0.000000e+00
      endloop
   endfacet
   facet normal -0.000000e+00 5.547002e-01 8.320503e-01
      outer loop
         vertex -1.000000e+01 1.500000e+01 0.000000e+00
         vertex -3.333333e+00 1.000000e+01 3.333333e+00
         vertex -3.333333e+00 1.500000e+01 0.000000e+00
      endloop
   endfacet
   facet normal -0.000000e+00 5.547002e-01 8.320503e-01
      outer loop
         vertex -1.000000e+01 5.000000e+00 6.666667e+00
         vertex -3.333333e+00 5.000000e+00 6.666667e+00
         vertex -1.000000e+01 7.455000e+00 5.030000e+00
      endloop
   endfacet
   facet normal 2.888467e-08 5.547002e-01 8.320503e-01
      outer loop
         vertex -1.000000e+01 7.455000e+00 5.030000e+00
         vertex -3.333333e+00 5.000000e+00 6.666667e+00
         vertex -3.333333e+00 1.000000e+01 3.333333e+00
      endloop
   endfacet
   facet normal -5.090720e-07 5.547012e-01 8.320496e-01
      outer loop
         vertex -1.000000e+01 7.455000e+00 5.030000e+00
         vertex -3.333333e+00 1.000000e+01 3.333333e+00
         vertex -1.000000e+01 7.545000e+00 4.970000e+00
      endloop
   endfacet
   facet normal 0.000000e+00 5.547002e-01 8.320503e-01
      outer loop
         vertex -1.000000e+01 7.545000e+00 4.970000e+00
         vertex -3.333333e+00 1.000000e+01 3.333333e+00
         vertex -1.000000e+01 1.000000e+01 3.333333e+00
      endloop
   endfacet
   facet normal -0.000000e+00 5.547002e-01 8.320503e-01
      outer loop
         vertex -3.333333e+00 5.000000e+00 6.666667e+00
         vertex 3.333333e+00 5.000000e+00 6.666667e+00
         vertex -3.333333e+00 1.000000e+01 3.333333e+00
      endloop
   endfacet
   facet normal -0.000000e+00 5.547002e-01 8.320503e-01
      outer loop
         vertex -3.333333e+00 1.000000e+01 3.333333e+00
         vertex 3.333333e+00 5.000000e+00 6.666667e+00
         vertex 3.333333e+00 1.000000e+01 3.333333e+00
      endloop
   endfacet
   facet normal -0.000000e+00 5.547002e-01 8.320503e-01
      outer loop
         vertex -3.333333e+00 1.000000e+01 3.333333e+00
         vertex 3.333333e+00 1.000000e+01 3.333333e+00
         vertex -3.333333e+00 1.500000e+01 0.000000e+00
      endloop
   endfacet
   facet normal -0.000000e+00 5.547002e-01 8.320503e-01
      outer loop
         vertex -3.333333e+00 1.500000e+01 0.000000e+00
         vertex 3.333333e+00 1.000000e+01 3.333333e+00
         vertex 3.333333e+00 1.500000e+01 0.000000e+00
      endloop
   endfacet
   facet normal 0.000000e+00 5.547002e-01 8.320503e-01
      outer loop
         vertex 1.000000e+01 1.500000e+01 0.000000e+00
         vertex 3.333333e+00 1.500000e+01 0.000000e+00
         vertex 1.000000e+01 1.000000e+01 3.333333e+00
      endloop
   endfacet
   facet normal 0.000000e+00 5.547002e-01 8.320503e-01
      outer loop
         vertex 1.000000e+01 1.000000e+01 3.333333e+00
         vertex 3.333333e+00 1.500000e+01 0.000000e+00
         vertex 3.333333e+00 1.000000e+01 3.333333e+00
      endloop
   endfacet
   facet normal 0.000000e+00 5.547002e-01 8.320503e-01
      outer loop
         vertex 1.000000e+01 1.000000e+01 3.333333e+00
         vertex 3.333333e+00 1.000000e+01 3.333333e+00
         vertex 1.000000e+01 7.545000e+00 4.970000e+00
      endloop
   endfacet
   facet normal -9.860695e-09 5.547002e-01 8.320503e-01
      outer loop
         vertex 1.000000e+01 7.545000e+00 4.970000e+00
         vertex 3.333333e+00 1.000000e+01 3.333333e+00
         vertex 3.333333e+00 5.000000e+00 6.666667e+00
      endloop
   endfacet
   facet normal -5.478175e-07 5.547012e-01 8.320496e-01
      outer loop
         vertex 1.000000e+01 7.545000e+00 4.970000e+00
         vertex 3.333333e+00 5.000000e+00 6.666667e+00
         vertex 1.000000e+01 7.455000e+00 5.030000e+00
      endloop
   endfacet
   facet normal 0.000000e+00 5.547002e-01 8.320503e-01
      outer loop
         vertex 1.000000e+01 7.455000e+00 5.030000e+00
         vertex 3.333333e+00 5.000000e+00 6.666667e+00
         vertex 1.000000e+01 5.000000e+00 6.666667e+00
      endloop
   endfacet
   facet normal -0.000000e+00 5.547002e-01 8.320503e-01
      outer loop
         vertex -1.000000e+01 5.000000e+00 6.666667e+00
         vertex -3.333333e+00 -1.734723e-15 1.000000e+01
         vertex -3.333333e+00 5.000000e+00 6.666667e+00
      endloop
   endfacet
   facet normal 0.000000e+00 5.547002e-01 8.320503e-01
      outer loop
         vertex -3.333333e+00 5.000000e+00 6.666667e+00
         vertex -3.333333e+00 -1.734723e-15 1.000000e+01
         vertex 3.333333e+00 -1.734723e-15 1.000000e+01
      endloop
   endfacet
   facet normal -0.000000e+00 5.547002e-01 8.320503e-01
      outer loop
         vertex -3.333333e+00 5.000000e+00 6.666667e+00
         vertex 3.333333e+00 -1.734723e-15 1.000000e+01
         vertex 3.333333e+00 5.000000e+00 6.666667e+00
      endloop
   endfacet
   facet normal 0.000000e+00 5.547002e-01 8.320503e-01
      outer loop
         vertex 3.333333e+00 5.000000e+00 6.666667e+00
         vertex 3.333333e+00 -1.734723e-15 1.000000e+01
         vertex 1.000000e+01 -1.734723e-15 1.000000e+01
      endloop
   endfacet
   facet normal -0.000000e+00 5.547002e-01 8.320503e-01
      outer loop
         vertex 3.333333e+00 5.000000e+00 6.666667e+00
         vertex 1.000000e+01 -1.734723e-15 1.000000e+01
         vertex 1.000000e+01 5.000000e+00 6.666667e+00
      endloop
   endfacet
   facet normal 1.000000e+00 0.000000e+00 0.000000e+00
      outer loop
         vertex 1.000000e+01 5.000000e+00 6.666667e+00
         vertex 1.000000e+01 -1.734723e-15 1.000000e+01
         vertex 1.000000e+01 -1.040834e-17 5.030000e+00
      endloop
   endfacet
   facet normal 1.000000e+00 -0.000000e+00 -0.000000e+00
      outer loop
         vertex 1.000000e+01 0.000000e+00 5.000000e+00
         vertex 1.000000e+01 7.545000e+00 4.970000e+00
         vertex 1.000000e+01 -1.040834e-17 5.030000e+00
      endloop
   endfacet
   facet normal 1.000000e+00 -0.000000e+00 0.000000e+00
      outer loop
         vertex 1.000000e+01 -1.040834e-17 5.030000e+00
         vertex 1.000000e+01 7.545000e+00 4.970000e+00
         vertex 1.000000e+01 7.455000e+00 5.030000e+00
      endloop
   endfacet
   facet normal 1.000000e+00 0.000000e+00 0.000000e+00
      outer loop
         vertex 1.000000e+01 -1.040834e-17 5.030000e+00
         vertex 1.000000e+01 7.455000e+00 5.030000e+00
         vertex 1.000000e+01 5.000000e+00 6.666667e+00
      endloop
   endfacet
   facet normal 1.000000e+00 0.000000e+00 0.000000e+00
      outer loop
         vertex 1.000000e+01 1.500000e+01 0.000000e+00
         vertex 1.000000e+01 1.000000e+01 3.333333e+00
         vertex 1.000000e+01 7.545000e+00 0.000000e+00
      endloop
   endfacet
   facet normal 1.000000e+00 0.000000e+00 0.000000e+00
      outer loop
         vertex 1.000000e+01 7.545000e+00 0.000000e+00
         vertex 1.000000e+01 1.000000e+01 3.333333e+00
         vertex 1.000000e+01 7.545000e+00 4.970000e+00
      endloop
   endfacet
   facet normal 1.000000e+00 0.000000e+00 -0.000000e+00
      outer loop
         vertex 1.000000e+01 7.545000e+00 0.000000e+00
         vertex 1.000000e+01 7.545000e+00 4.970000e+00
         vertex 1.000000e+01 7.500000e+00 0.000000e+00
      endloop
   endfacet
   facet normal 1.000000e+00 0.000000e+00 -0.000000e+00
      outer loop
         vertex 1.000000e+01 7.500000e+00 0.000000e+00
         vertex 1.000000e+01 7.545000e+00 4.970000e+00
         vertex 1.000000e+01 0.000000e+00 5.000000e+00
      endloop
   endfacet
   facet normal 1.000000e+00 0.000000e+00 0.000000e+00
      outer loop
         vertex 1.000000e+01 7.500000e+00 0.000000e+00
         vertex 1.000000e+01 0.000000e+00 5.000000e+00
         vertex 1.000000e+01 0.000000e+00 0.000000e+00
      endloop
   endfacet
   facet normal -1.000000e+00 0.000000e+00 -0.000000e+00
      outer loop
         vertex -1.000000e+01 1.000000e+01 3.333333e+00
         vertex -1.000000e+01 1.500000e+01 0.000000e+00
         vertex -1.000000e+01 7.545000e+00 0.000000e+00
      endloop
   endfacet
   facet normal -1.000000e+00 0.000000e+00 0.000000e+00
      outer loop
         vertex -1.000000e+01 7.500000e+00 0.000000e+00
         vertex -1.000000e+01 7.455000e+00 5.030000e+00
         vertex -1.000000e+01 7.545000e+00 0.000000e+00
      endloop
   endfacet
   facet normal -1.000000e+00 0.000000e+00 0.000000e+00
      outer loop
         vertex -1.000000e+01 7.545000e+00 0.000000e+00
         vertex -1.000000e+01 7.455000e+00 5.030000e+00
         vertex -1.000000e+01 7.545000e+00 4.970000e+00
      endloop
   endfacet
   facet normal -1.000000e+00 0.000000e+00 0.000000e+00
      outer loop
         vertex -1.000000e+01 7.545000e+00 0.000000e+00
         vertex -1.000000e+01 7.545000e+00 4.970000e+00
         vertex -1.000000e+01 1.000000e+01 3.333333e+00
      endloop
   endfacet
   facet normal -1.000000e+00 0.000000e+00 0.000000e+00
      outer loop
         vertex -1.000000e+01 -1.734723e-15 1.000000e+01
         vertex -1.000000e+01 5.000000e+00 6.666667e+00
         vertex -1.000000e+01 0.000000e+00 5.030000e+00
      endloop
   endfacet
   facet normal -1.000000e+00 0.000000e+00 0.000000e+00
      outer loop
         vertex -1.000000e+01 0.000000e+00 5.030000e+00
         vertex -1.000000e+01 5.000000e+00 6.666667e+00
         vertex -1.000000e+01 7.455000e+00 5.030000e+00
      endloop
   endfacet
   facet normal -1.000000e+00 0.000000e+00 0.000000e+00
      outer loop
         vertex -1.000000e+01 0.000000e+00 5.030000e+00
         vertex -1.000000e+01 7.455000e+00 5.030000e+00
         vertex -1.000000e+01 0.000000e+00 5.000000e+00
      endloop
   endfacet
   facet normal -1.000000e+00 0.000000e+00 0.000000e+00
      outer loop
         vertex -1.000000e+01 0.000000e+00 5.000000e+00
         vertex -1.000000e+01 7.455000e+00 5.030000e+00
         vertex -1.000000e+01 7.500000e+00 0.000000e+00
      endloop
   endfacet
   facet normal -1.000000e+00 0.000000e+00 0.000000e+00
      outer loop
         vertex -1.000000e+01 0.000000e+00 5.000000e+00
         vertex -1.000000e+01 7.500000e+00 0.000000e+00
         vertex -1.000000e+01 0.000000e+00 0.000000e+00
      endloop
   endfacet
endsolid Pyramid_Complex